<?xml version="1.0" standalone="no"?><!DOCTYPE svg PUBLIC "-//W3C//DTD SVG 1.1//EN" "http://www.w3.org/Graphics/SVG/1.1/DTD/svg11.dtd"><svg t="1637892792504" class="icon" viewBox="0 0 1067 1024" version="1.1" xmlns="http://www.w3.org/2000/svg" p-id="43365" xmlns:xlink="http://www.w3.org/1999/xlink" width="50.015625" height="48"><defs><style type="text/css"></style></defs><path d="M689.028961 1024L0 1016.179999v-32.148892a514.816721 514.816721 0 0 1 440.961158-507.431165 244.157803 244.157803 0 1 1 149.448904 0 517.423388 517.423388 0 0 1 81.675564 19.115558l51.26445 16.508891-38.231115 37.79667a304.111143 304.111143 0 0 0-91.233343 211.574467zM66.470007 951.882215l529.153389 6.516667-66.904451-191.155576a366.67115 366.67115 0 0 1 74.290007-222.001134 449.650047 449.650047 0 0 0-536.538945 406.640043zM516.120054 67.787677A177.687796 177.687796 0 1 0 695.111184 245.475474a178.556685 178.556685 0 0 0-178.99113-177.687797z" fill="#666666" p-id="43366"></path><path d="M989.664549 806.34331h-263.273361c-43.444449 0-74.724452-23.025558-74.724453-54.305561S682.946739 697.732188 726.391188 697.732188h263.273361c43.444449 0 74.724452 23.025558 74.724452 54.305561s-31.280003 54.305561-74.724452 54.305561z" fill="#FF8F1E" p-id="43367"></path><path d="M879.750093 936.676657c-31.280003 0-54.305561-31.280003-54.305562-74.724452v-263.273361c0-43.444449 23.025558-74.724452 54.305562-74.724452s54.305561 31.280003 54.305561 74.724452v263.273361c0 43.444449-21.722225 74.724452-54.305561 74.724452z" fill="#FF8F1E" p-id="43368"></path></svg>