<?xml version="1.0" standalone="no"?><!DOCTYPE svg PUBLIC "-//W3C//DTD SVG 1.1//EN" "http://www.w3.org/Graphics/SVG/1.1/DTD/svg11.dtd"><svg t="1641569876837" class="icon" viewBox="0 0 1024 1024" version="1.1" xmlns="http://www.w3.org/2000/svg" p-id="7029" xmlns:xlink="http://www.w3.org/1999/xlink" width="200" height="200"><defs><style type="text/css"></style></defs><path d="M634.88 610.56h-107.52v-99.84c0-8.96-6.4-15.36-15.36-15.36s-15.36 6.4-15.36 15.36v99.84h-107.52c-8.96 0-15.36 6.4-15.36 15.36s6.4 15.36 15.36 15.36h107.52v116.48c0 8.96 6.4 15.36 15.36 15.36s15.36-6.4 15.36-15.36v-116.48h107.52c8.96 0 15.36-6.4 15.36-15.36s-6.4-15.36-15.36-15.36z" fill="#4E85F0" p-id="7030"></path><path d="M872.96 218.88c0-3.84-1.28-7.68-3.84-11.52-2.56-2.56-6.4-5.12-11.52-5.12H718.08v-49.92c0-8.96-6.4-15.36-15.36-15.36s-15.36 6.4-15.36 15.36v49.92H353.28v-49.92c0-8.96-6.4-15.36-15.36-15.36s-15.36 6.4-15.36 15.36v49.92H166.4c-8.96 0-15.36 6.4-15.36 15.36v652.8c0 3.84 1.28 7.68 5.12 11.52 2.56 2.56 6.4 3.84 10.24 3.84 257.28-2.56 647.68-5.12 684.8-1.28 1.28 1.28 3.84 1.28 5.12 1.28 3.84 0 7.68-1.28 11.52-5.12 3.84-3.84 5.12-11.52 3.84-16.64-3.84-34.56-1.28-401.92 1.28-645.12z m-550.4 15.36v88.32c0 8.96 6.4 15.36 15.36 15.36s15.36-6.4 15.36-15.36v-88.32h334.08v88.32c0 8.96 6.4 15.36 15.36 15.36s15.36-6.4 15.36-15.36v-88.32h122.88c0 29.44-1.28 96-1.28 175.36-1.28 0-2.56-1.28-5.12-1.28h-652.8V234.24h140.8z m188.16 619.52c-142.08 1.28-282.88 1.28-328.96 2.56V439.04h654.08c1.28 0 2.56 0 5.12-1.28v104.96c-1.28 192-1.28 275.2 1.28 311.04-39.68-1.28-125.44-1.28-331.52 0z" fill="#4E85F0" p-id="7031"></path></svg>