<?xml version="1.0" standalone="no"?><!DOCTYPE svg PUBLIC "-//W3C//DTD SVG 1.1//EN" "http://www.w3.org/Graphics/SVG/1.1/DTD/svg11.dtd"><svg t="1641655758272" class="icon" viewBox="0 0 1024 1024" version="1.1" xmlns="http://www.w3.org/2000/svg" p-id="2117" xmlns:xlink="http://www.w3.org/1999/xlink" width="200" height="200"><defs><style type="text/css"></style></defs><path d="M821.21 368.63c0-116.33-94.64-210.96-210.96-210.96S399.28 252.3 399.28 368.63c0 66.43 30.88 125.78 79.02 164.48a353.124 353.124 0 0 0-101.25 62.28C313.17 651.47 271.61 728.5 260.01 812.3c-2.73 19.69 11.03 37.87 30.72 40.6 1.67 0.23 3.34 0.34 4.98 0.34 17.69 0 33.12-13.05 35.61-31.07 19.14-138.29 139.04-242.58 278.91-242.58 116.34 0 210.98-94.63 210.98-210.96zM610.24 507.59c-76.62 0-138.96-62.34-138.96-138.96s62.34-138.96 138.96-138.96S749.2 292.01 749.2 368.63s-62.33 138.96-138.96 138.96z" fill="#31D0C8" p-id="2118"></path><path d="M393.12 517.29a36.002 36.002 0 0 0-20.5-35.5c-50.8-24-83.62-75.78-83.62-131.93 0-58.44 34.71-111.07 88.44-134.1 18.27-7.83 26.74-29 18.91-47.27-7.83-18.27-29-26.74-47.27-18.91A217.646 217.646 0 0 0 217 349.86c0 42.08 12.03 82.92 34.79 118.12 8.79 13.6 19 26.09 30.42 37.31a366.92 366.92 0 0 0-37.81 22.17 367.609 367.609 0 0 0-82.49 75.79c-48.67 60.83-76.23 134.11-79.71 211.92-0.89 19.86 14.5 36.68 34.36 37.57 0.55 0.02 1.09 0.04 1.63 0.04 19.14 0 35.07-15.08 35.94-34.39 5.65-126.47 91.24-234.75 212.98-269.42a36.027 36.027 0 0 0 26.01-31.68zM898.83 678.92h-66.32V612.6c0-19.88-16.12-36-36-36s-36 16.12-36 36v66.32H694.2c-19.88 0-36 16.12-36 36s16.12 36 36 36h66.32v66.32c0 19.88 16.12 36 36 36s36-16.12 36-36v-66.32h66.32c19.88 0 36-16.12 36-36s-16.12-36-36.01-36z" fill="#31D0C8" p-id="2119"></path></svg>