<?xml version="1.0" encoding="UTF-8" standalone="no"?>
<svg
   t="1638262407499"
   class="icon"
   viewBox="0 0 1027 1024"
   version="1.1"
   p-id="2183"
   width="48.140625"
   height="48"
   id="svg8"
   sodipodi:docname="扫帚 (1).svg"
   inkscape:version="1.1 (c68e22c387, 2021-05-23)"
   xmlns:inkscape="http://www.inkscape.org/namespaces/inkscape"
   xmlns:sodipodi="http://sodipodi.sourceforge.net/DTD/sodipodi-0.dtd"
   xmlns="http://www.w3.org/2000/svg"
   xmlns:svg="http://www.w3.org/2000/svg">
  <sodipodi:namedview
     id="namedview10"
     pagecolor="#ffffff"
     bordercolor="#666666"
     borderopacity="1.0"
     inkscape:pageshadow="2"
     inkscape:pageopacity="0.0"
     inkscape:pagecheckerboard="0"
     showgrid="false"
     inkscape:zoom="6.1724529"
     inkscape:cx="8.4245276"
     inkscape:cy="26.974689"
     inkscape:window-width="1920"
     inkscape:window-height="1001"
     inkscape:window-x="-9"
     inkscape:window-y="-9"
     inkscape:window-maximized="1"
     inkscape:current-layer="svg8" />
  <defs
     id="defs4">
    <style
       type="text/css"
       id="style2" />
  </defs>
  <path
     d="m 906.44681,412.04433 c -49.85038,-22.91411 -99.57887,-45.09692 -149.91678,-66.7922 -36.81525,-17.10306 -79.77996,-14.44356 -114.2049,7.06925 -21.79149,12.8179 -38.88385,32.30319 -48.75343,55.5789 125.13379,55.57891 250.22696,111.19844 375.27949,166.8586 1.70637,-5.24099 3.41274,-9.99445 5.241,-14.62602 18.55937,-59.39325 -10.60083,-123.23042 -67.64538,-148.08853 z M 1019.4329,22.626343 C 1009.1174,10.627194 994.67947,2.9298449 978.96753,1.052952 964.50162,-2.9182301 949.36766,4.6487468 943.86506,18.604185 895.11164,109.89497 846.35821,201.42953 797.60479,293.20785 c -1.09696,2.92521 -2.92521,5.85041 -4.02216,8.77562 l 2.31579,2.31579 c 39.2465,16.94181 78.37113,34.49304 117.61764,52.04428 0.9603,-1.38121 1.5862,-2.96684 1.82825,-4.63158 36.56507,-100.0664 73.13014,-200.86411 108.84199,-300.930514 4.1493,-9.49601 2.2835,-20.547669 -4.7534,-28.155103 z M 217.92656,550.1384 c 39.78786,0.43383 75.93773,-23.08923 91.65683,-59.64191 15.71907,-36.55261 7.92635,-78.97033 -19.75603,-107.55239 -27.68238,-28.58206 -69.82927,-37.72698 -106.86576,-23.18461 -37.03657,14.5424 -61.70339,49.92171 -62.54189,89.70309 -0.15522,54.43912 43.0906,99.09043 97.50685,100.67582 z M 61.54995,273.21895 c -41.0333,-182.145967 -20.51665,-91.07298 0,0 z m 177.46247,1.21883 c 21.30736,-0.81672 38.37417,-17.9367 39.12462,-39.2465 0.20281,-21.79019 -17.3339,-39.60006 -39.12462,-39.73405 -21.75985,-0.20561 -39.45213,17.48666 -39.24651,39.24651 0.19276,21.67519 17.57535,39.27371 39.24651,39.73404 z M 883.5327,633.26299 c -3.53463,8.8975 -6.45983,17.67312 -9.38504,26.44874 -7.55678,20.47644 -15.11356,42.04983 -24.37671,63.13568 -30.80049,77.84165 -69.69155,152.23305 -116.03315,221.94997 -5.49037,9.40971 -15.55442,15.20698 -26.44873,15.23544 -2.09969,0.33094 -4.23826,0.33094 -6.33795,0 -12.18835,-2.31578 -22.91411,-4.14404 -34.61493,-5.85041 -11.70082,-1.70637 -22.79223,-3.53462 -34.49305,-5.85041 -9.38503,-1.70637 -18.16065,-4.14404 -26.93627,-5.85041 -4.14404,-1.21883 -7.67866,-1.70637 -12.18835,-2.9252 l -25.2299,-5.85042 14.62603,-21.08585 c 18.16065,-26.32685 32.17726,-48.02213 43.39055,-66.18278 -23.9357,17.95758 -49.86561,33.09018 -77.27418,45.09692 -15.18992,7.50963 -31.81662,11.6663 -48.75343,12.18836 -16.32316,-0.0932 -32.29006,-4.78192 -46.07199,-13.52908 -14.05382,-8.16965 -28.53841,-15.5747 -43.39054,-22.18281 -7.06925,-3.53462 -14.01661,-6.45982 -20.47644,-9.99445 l -20.47644,-10.48198 15.23544,-17.0637 c 6.05157,-6.26664 11.70964,-12.90165 16.94182,-19.86702 -14.26495,5.60683 -28.93261,10.12936 -43.87808,13.52907 -2.55381,0.24267 -5.12486,0.24267 -7.67867,0 -7.80068,0.0181 -15.40272,-2.45895 -21.69527,-7.06924 -18.77007,-14.1385 -38.63709,-28.76453 -59.11353,-45.70634 -7.67866,-5.85041 -14.13849,-12.18836 -21.69527,-19.2576 -2.92521,-2.92521 -6.45983,-5.85041 -9.99446,-9.38504 l -25.71743,-23.15788 38.02767,-7.06924 c 1.16837,-0.21533 2.36626,-0.21533 3.53463,0 75.07166,-10.65321 147.63579,-34.63487 214.2713,-70.81435 43.72029,-23.37969 82.50185,-55.00094 114.2049,-93.11904 8.77562,-11.09141 16.3324,-22.79223 24.37671,-35.10247 2.36447,-3.82845 4.92753,-7.53064 7.67867,-11.0914 -0.19274,-0.81085 0.0906,-1.66088 0.7313,-2.19391 l 2.31579,-3.53462 c -18.16066,-10.48199 -35.71189,-19.86702 -52.6537,-29.86147 -12.18836,16.45428 -21.69528,32.78667 -34.00552,46.92517 -42.36555,47.61437 -96.44074,83.32836 -156.86414,103.60103 -65.83522,25.2762 -135.59417,38.80721 -206.10511,39.9778 -16.0373,-0.81824 -30.937,8.27638 -37.54013,22.91411 -6.844,14.89604 -4.05512,32.44672 7.06924,44.4875 92.39072,110.76548 212.63084,194.90832 348.34322,243.76713 74.95494,28.37121 153.30073,46.81031 233.04138,54.84761 19.14755,3.3283 38.40834,-5.2427 48.75342,-21.6953 5.36288,-7.67864 11.21329,-15.23543 16.45428,-22.79221 61.86989,-93.26488 111.63167,-194.01713 148.08853,-299.83356 4.75346,-12.18836 8.77562,-25.10802 12.91966,-38.02767 -18.77007,-6.45983 -37.54014,-13.52908 -56.18832,-19.86702 z"
     fill="#707070"
     p-id="2184"
     id="path6"
     sodipodi:nodetypes="ccccccccccccccccccssscccccccccccccccsccccccccccccccccccccccccccccccccccccccccccc" />
  <rect
     style="fill:#ffffff;stroke:none;stroke-width:10.6667;stroke-dashoffset:20.5;paint-order:stroke fill markers;stop-color:#000000"
     id="rect849"
     width="169.85202"
     height="166.18616"
     x="161.29832"
     y="152.74463" />
  <rect
     style="fill:#ffffff;stroke:none;stroke-width:10.6667;stroke-dashoffset:20.5;paint-order:stroke fill markers;stop-color:#000000"
     id="rect895"
     width="298.1575"
     height="261.49881"
     x="87.980904"
     y="316.48688" />
</svg>
