<svg class="icon" viewBox="0 0 1027 1024" version="1.1" width="48.141" height="48" id="svg8" xmlns="http://www.w3.org/2000/svg"><defs id="defs4"><style type="text/css" id="style2"/></defs><path d="M906.447 412.044c-49.85-22.914-99.58-45.097-149.917-66.792a120.055 120.055 0 0 0-114.205 7.07 117.861 117.861 0 0 0-48.753 55.578 524216.688 524216.688 0 0 1 375.28 166.859 251.088 251.088 0 0 1 5.24-14.626c18.56-59.393-10.6-123.23-67.645-148.089zm112.986-389.418a63.258 63.258 0 0 0-40.465-21.573c-14.466-3.971-29.6 3.596-35.103 17.551a140784.278 140784.278 0 0 0-146.26 274.604c-1.097 2.925-2.925 5.85-4.022 8.775l2.315 2.316c39.247 16.942 78.372 34.493 117.618 52.045a10.848 10.848 0 0 0 1.828-4.632c36.565-100.066 73.13-200.864 108.842-300.93a26.083 26.083 0 0 0-4.753-28.156zM217.927 550.138c39.787.434 75.937-23.089 91.656-59.642 15.72-36.552 7.927-78.97-19.756-107.552-27.682-28.582-69.829-37.727-106.865-23.185-37.037 14.543-61.704 49.922-62.542 89.704-.156 54.439 43.09 99.09 97.507 100.675zM61.55 273.218c-41.033-182.145-20.517-91.072 0 0zm177.462 1.22c21.308-.817 38.375-17.937 39.125-39.247.203-21.79-17.334-39.6-39.125-39.734-21.76-.205-39.452 17.487-39.246 39.247.193 21.675 17.575 39.273 39.246 39.734zm644.52 358.825c-3.534 8.897-6.46 17.673-9.384 26.449-7.557 20.476-15.114 42.05-24.377 63.135a1195.556 1195.556 0 0 1-116.033 221.95 30.715 30.715 0 0 1-26.449 15.236c-2.1.33-4.238.33-6.338 0-12.188-2.316-22.914-4.144-34.615-5.85-11.7-1.707-22.792-3.535-34.493-5.851-9.385-1.706-18.16-4.144-26.936-5.85-4.144-1.22-7.679-1.707-12.188-2.926l-25.23-5.85 14.626-21.086c18.16-26.327 32.177-48.022 43.39-66.183a388.565 388.565 0 0 1-77.274 45.097 118.227 118.227 0 0 1-48.753 12.189 86.903 86.903 0 0 1-46.072-13.53 451.703 451.703 0 0 0-43.39-22.182c-7.07-3.535-14.018-6.46-20.477-9.995l-20.477-10.482 15.236-17.063a211.224 211.224 0 0 0 16.941-19.867 304.71 304.71 0 0 1-43.878 13.529 40.586 40.586 0 0 1-7.678 0 36.565 36.565 0 0 1-21.696-7.07c-18.77-14.138-38.637-28.764-59.113-45.706-7.679-5.85-14.139-12.188-21.695-19.258-2.926-2.925-6.46-5.85-9.995-9.385l-25.717-23.157 38.027-7.07a9.75 9.75 0 0 1 3.535 0A636.476 636.476 0 0 0 467.3 641.673a384.174 384.174 0 0 0 114.205-93.12c8.776-11.09 16.333-22.791 24.377-35.102a129.074 129.074 0 0 1 7.679-11.091c-.193-.81.09-1.66.73-2.194l2.317-3.534c-18.161-10.482-35.712-19.868-52.654-29.862-12.188 16.454-21.695 32.787-34.006 46.925a365.65 365.65 0 0 1-156.864 103.601 602.958 602.958 0 0 1-206.105 39.978 39.003 39.003 0 0 0-37.54 22.914 40.587 40.587 0 0 0 7.07 44.488 811.623 811.623 0 0 0 348.343 243.767 918.516 918.516 0 0 0 233.04 54.847 47.9 47.9 0 0 0 48.754-21.695c5.363-7.679 11.214-15.235 16.455-22.792a1320.486 1320.486 0 0 0 148.088-299.834c4.754-12.188 8.776-25.108 12.92-38.027-18.77-6.46-37.54-13.53-56.188-19.867z" id="path6"/><path id="rect849" stroke="none" stroke-width="10.667" stroke-dashoffset="20.5" paint-order="stroke fill markers" stop-color="#000" d="M161.298 152.745H331.15v166.186H161.298z"/><path id="rect895" stroke="none" stroke-width="10.667" stroke-dashoffset="20.5" paint-order="stroke fill markers" stop-color="#000" d="M87.981 316.487h298.158v261.499H87.981z"/></svg>