<?xml version="1.0" standalone="no"?><!DOCTYPE svg PUBLIC "-//W3C//DTD SVG 1.1//EN" "http://www.w3.org/Graphics/SVG/1.1/DTD/svg11.dtd"><svg t="1641564233385" class="icon" viewBox="0 0 1024 1024" version="1.1" xmlns="http://www.w3.org/2000/svg" p-id="3261" xmlns:xlink="http://www.w3.org/1999/xlink" width="200" height="200"><defs><style type="text/css"></style></defs><path d="M798.72 201.386667h-51.2V160.426667h-68.266667v40.96h-139.946666V160.426667h-68.266667v40.96h-136.533333V160.426667h-68.266667v40.96H208.213333C163.84 201.386667 126.293333 238.933333 126.293333 286.72v539.306667c0 44.373333 37.546667 81.92 81.92 81.92h587.093334c44.373333 0 81.92-37.546667 81.92-81.92V286.72c3.413333-47.786667-34.133333-85.333333-78.506667-85.333333zM375.466667 744.106667H293.546667v-211.626667H375.466667v211.626667z m167.253333 0h-81.92v-293.546667h81.92v293.546667z m170.666667 0h-81.92v-375.466667h81.92v375.466667z" fill="#708BB1" p-id="3262"></path></svg>