<?xml version="1.0" standalone="no"?><!DOCTYPE svg PUBLIC "-//W3C//DTD SVG 1.1//EN" "http://www.w3.org/Graphics/SVG/1.1/DTD/svg11.dtd"><svg t="1641573343454" class="icon" viewBox="0 0 1024 1024" version="1.1" xmlns="http://www.w3.org/2000/svg" p-id="11468" xmlns:xlink="http://www.w3.org/1999/xlink" width="200" height="200"><defs><style type="text/css"></style></defs><path d="M377.856 115.2h268.8v50.688H377.856z" p-id="11469" fill="#dbdbdb"></path><path d="M886.784 115.2h-135.68v50.688h133.12v680.96H138.752v-680.96h134.144v-50.688H136.704c-26.112 0-47.104 20.992-47.104 47.104v688.128c0 26.112 20.992 47.104 47.104 47.104h750.08c26.112 0 47.104-20.992 47.104-47.104V162.304c0-26.112-20.992-47.104-47.104-47.104z" p-id="11470" fill="#dbdbdb"></path><path d="M272.896 165.888h104.96V266.24H272.896zM646.656 165.888h104.96V266.24h-104.96z" p-id="11471" fill="#dbdbdb"></path><path d="M542.72 650.24l-6.656 6.144c-12.288 12.288-32.256 11.776-44.544-0.512l-128-131.584c-12.288-12.288-11.776-32.256 0.512-44.544l6.656-6.144c12.288-12.288 32.256-11.776 44.544 0.512l128.512 132.096c11.776 12.288 11.264 32.256-1.024 44.032z" p-id="11472" fill="#dbdbdb"></path><path d="M501.248 662.016l-8.192-4.096c-15.36-8.192-20.992-27.136-12.8-42.496l141.312-265.216c8.192-15.36 27.136-20.992 42.496-12.8l8.192 4.096c15.36 8.192 20.992 27.136 12.8 42.496l-141.312 265.216c-8.192 14.848-27.136 20.992-42.496 12.8z" p-id="11473" fill="#dbdbdb"></path></svg>