<?xml version="1.0" standalone="no"?><!DOCTYPE svg PUBLIC "-//W3C//DTD SVG 1.1//EN" "http://www.w3.org/Graphics/SVG/1.1/DTD/svg11.dtd"><svg t="1641564427766" class="icon" viewBox="0 0 1162 1024" version="1.1" xmlns="http://www.w3.org/2000/svg" p-id="5409" xmlns:xlink="http://www.w3.org/1999/xlink" width="226.953125" height="200"><defs><style type="text/css"></style></defs><path d="M1082.599418 103.691174H79.456838a79.456838 79.456838 0 0 0-79.456838 79.456838v761.39515a79.456838 79.456838 0 0 0 79.456838 79.456838h1003.14258a79.456838 79.456838 0 0 0 79.456838-79.456838V183.148012a79.456838 79.456838 0 0 0-79.456838-79.456838zM825.556547 523.819205L560.965276 855.750145a49.26324 49.26324 0 0 1-37.94064 18.672357 48.667313 48.667313 0 0 1-37.543356-17.281862L337.691562 685.911154a49.660524 49.660524 0 0 1 75.483996-64.558681l107.465373 125.541804 227.246557-284.852764a49.660524 49.660524 0 0 1 77.669059 61.777692z" fill="#FFC255" p-id="5410"></path><path d="M79.456838 103.691174h1003.14258a79.456838 79.456838 0 0 1 79.456838 79.456838v132.891561H0V183.148012a79.456838 79.456838 0 0 1 79.456838-79.456838z" fill="#F94E4E" p-id="5411"></path><path d="M0 316.039573h1162.056256v49.660524H0z" fill="#F7B03E" p-id="5412"></path><path d="M216.519884 39.728419m55.818428 0l0 0q55.818429 0 55.818429 55.818429l0 111.438215q0 55.818429-55.818429 55.818429l0 0q-55.818429 0-55.818428-55.818429l0-111.438215q0-55.818429 55.818428-55.818429Z" fill="#EA3939" p-id="5413"></path><path d="M833.899515 39.728419m55.818429 0l0 0q55.818429 0 55.818428 55.818429l0 111.438215q0 55.818429-55.818428 55.818429l0 0q-55.818429 0-55.818429-55.818429l0-111.438215q0-55.818429 55.818429-55.818429Z" fill="#EA3939" p-id="5414"></path><path d="M216.519884 0m55.818428 0l0 0q55.818429 0 55.818429 55.818429l0 111.438215q0 55.818429-55.818429 55.818429l0 0q-55.818429 0-55.818428-55.818429l0-111.438215q0-55.818429 55.818428-55.818429Z" fill="#F4D967" p-id="5415"></path><path d="M833.899515 0m55.818429 0l0 0q55.818429 0 55.818428 55.818429l0 111.438215q0 55.818429-55.818428 55.818429l0 0q-55.818429 0-55.818429-55.818429l0-111.438215q0-55.818429 55.818429-55.818429Z" fill="#F4D967" p-id="5416"></path><path d="M825.556547 523.024636L560.965276 854.161009a49.26324 49.26324 0 0 1-37.94064 18.672357 48.667313 48.667313 0 0 1-37.543356-17.281863L337.691562 685.116586a49.859166 49.859166 0 0 1-6.356547-9.534821 49.660524 49.660524 0 0 0 6.356547 55.023861l146.796508 171.229486a49.461882 49.461882 0 0 0 37.543356 17.281862 49.859166 49.859166 0 0 0 37.94064-18.672357l265.584481-331.930941a49.461882 49.461882 0 0 0 5.164695-53.633366 43.502619 43.502619 0 0 1-5.164695 8.144326z" fill="#F7B03E" p-id="5417"></path></svg>