<?xml version="1.0" standalone="no"?><!DOCTYPE svg PUBLIC "-//W3C//DTD SVG 1.1//EN" "http://www.w3.org/Graphics/SVG/1.1/DTD/svg11.dtd"><svg t="1639562801330" class="icon" viewBox="0 0 1024 1024" version="1.1" xmlns="http://www.w3.org/2000/svg" p-id="7936" xmlns:xlink="http://www.w3.org/1999/xlink" width="200" height="200"><defs><style type="text/css"></style></defs><path d="M575.585524 97.52381L755.809524 275.651048v224.792381a48.761905 48.761905 0 0 0 97.523809 0V234.886095L615.619048 0H125.366857C69.729524 0 24.380952 44.860952 24.380952 100.400762V874.788571C24.380952 930.425905 69.729524 975.238095 125.366857 975.238095h391.850667a48.761905 48.761905 0 0 0 0-97.523809H125.366857C123.367619 877.714286 121.904762 876.30019 121.904762 874.837333V100.449524c0-1.462857 1.462857-2.876952 3.462095-2.876953h450.218667z" fill="#2CB18D" p-id="7937"></path><path d="M780.190476 804.571429m-195.047619 0a195.047619 195.047619 0 1 0 390.095238 0 195.047619 195.047619 0 1 0-390.095238 0Z" fill="#FFBD06" p-id="7938"></path><path d="M679.887238 841.142857a36.571429 36.571429 0 1 0 0-73.142857 36.571429 36.571429 0 0 0 0 73.142857zM777.411048 841.142857a36.571429 36.571429 0 1 0 0-73.142857 36.571429 36.571429 0 0 0 0 73.142857zM874.934857 841.142857a36.571429 36.571429 0 1 0 0-73.142857 36.571429 36.571429 0 0 0 0 73.142857z" fill="#FFFFFF" p-id="7939"></path><path d="M195.047619 304.761905h438.857143a36.571429 36.571429 0 1 0 0-73.142857h-438.857143a36.571429 36.571429 0 0 0 0 73.142857zM195.047619 451.047619h438.857143a36.571429 36.571429 0 1 0 0-73.142857h-438.857143a36.571429 36.571429 0 0 0 0 73.142857zM195.047619 597.333333h438.857143a36.571429 36.571429 0 1 0 0-73.142857h-438.857143a36.571429 36.571429 0 1 0 0 73.142857z" fill="#4D84DB" p-id="7940"></path></svg>