<?xml version="1.0" encoding="UTF-8" standalone="no"?>
<svg
   t="1639565283824"
   class="icon"
   viewBox="0 0 1024 1024"
   version="1.1"
   p-id="25858"
   width="200"
   height="200"
   id="svg25"
   sodipodi:docname="提示 (1).svg"
   inkscape:version="1.1 (c68e22c387, 2021-05-23)"
   xmlns:inkscape="http://www.inkscape.org/namespaces/inkscape"
   xmlns:sodipodi="http://sodipodi.sourceforge.net/DTD/sodipodi-0.dtd"
   xmlns="http://www.w3.org/2000/svg"
   xmlns:svg="http://www.w3.org/2000/svg">
  <path
     d="m 512,0 c 282.7776,0 512,229.22239 512,512 0,282.77758 -229.2224,512 -512,512 C 229.2224,1024 0,794.77758 0,512 0,229.22239 229.2224,0 512,0 Z m 0,204.8 a 51.2,51.2 0 0 0 -51.2,51.20001 v 409.59997 a 51.2,51.2 0 0 0 102.4,0 V 255.99999 A 51.2,51.2 0 0 0 512,204.8 Z m 0,665.59999 a 51.2,51.2 0 1 0 0,-102.4 51.2,51.2 0 0 0 0,102.4 z"
     fill="#ff0000"
     p-id="25859"
     id="path23"
     style="stroke-width:1.2" />
</svg>
