<?xml version="1.0" encoding="UTF-8" standalone="no"?>
<svg
   t="1639565129576"
   class="icon"
   viewBox="0 0 1024 1024"
   version="1.1"
   p-id="19386"
   width="200"
   height="200"
   id="svg10"
   sodipodi:docname="fileEdit.svg"
   inkscape:version="1.1 (c68e22c387, 2021-05-23)"
   xmlns:inkscape="http://www.inkscape.org/namespaces/inkscape"
   xmlns:sodipodi="http://sodipodi.sourceforge.net/DTD/sodipodi-0.dtd"
   xmlns="http://www.w3.org/2000/svg"
   xmlns:svg="http://www.w3.org/2000/svg">
  <sodipodi:namedview
     id="namedview12"
     pagecolor="#ffffff"
     bordercolor="#666666"
     borderopacity="1.0"
     inkscape:pageshadow="2"
     inkscape:pageopacity="0.0"
     inkscape:pagecheckerboard="0"
     showgrid="false"
     inkscape:zoom="4.06"
     inkscape:cx="99.876847"
     inkscape:cy="100.12315"
     inkscape:window-width="1920"
     inkscape:window-height="1001"
     inkscape:window-x="-9"
     inkscape:window-y="-9"
     inkscape:window-maximized="1"
     inkscape:current-layer="layer1" />
  <defs
     id="defs4">
    <style
       type="text/css"
       id="style2" />
  </defs>
  <path
     d="M 836.89263,920.73827 H 187.04251 c -1.02155,0 -2.0431,0 -3.06465,-0.14422 -2.9187,-0.14421 -4.37806,1.29794 0,0.14422 -1.45935,0.43264 -4.52399,-0.86529 -5.83741,-1.29794 -1.31342,-0.28843 -2.4809,-0.72108 -3.79432,-1.15372 -4.9618,-1.58637 0.58374,0.43264 0.87561,0.43264 -2.04309,0.14422 -6.56709,-3.74959 -8.31831,-4.7591 -1.60529,-1.00951 -2.4809,-2.88431 0.72967,0.57686 -0.87561,-0.86529 -1.89716,-1.73058 -2.77277,-2.59588 -1.02155,-1.0095 -2.04309,-2.59587 -3.21058,-3.46116 -1.31341,-1.44216 -0.87561,-0.8653 1.16749,1.58636 -0.58375,-0.72107 -1.16749,-1.58636 -1.60529,-2.30744 -0.87561,-1.44215 -4.37806,-5.48018 -4.23213,-7.35498 0,0.28843 2.0431,5.76861 0.43781,0.86529 -0.43781,-1.29794 -0.87561,-2.45166 -1.16748,-3.7496 -0.43781,-1.58637 -0.72968,-3.17274 -1.16749,-4.7591 -1.02154,-3.60539 0,6.34547 0,0 0,-1.29794 -0.14593,-2.7401 -0.14593,-4.03803 V 882.95385 777.09981 586.8798 374.01798 202.25753 v -50.76379 -13.1236 -3.02852 -0.57686 -0.14421 c 0,-1.29794 0.14593,-2.7401 0.14593,-4.03803 0.29187,-6.34548 -1.45935,5.19175 0.14594,-0.8653 0.72967,-2.8843 1.60529,-5.62439 2.4809,-8.36448 1.16748,-3.60538 -3.06464,5.19175 0.14593,0.14422 0.72968,-1.00951 1.16749,-2.30745 1.89716,-3.31696 0.72968,-1.15372 1.45936,-2.16322 2.0431,-3.17273 3.06464,-4.75911 -2.77277,1.73058 0,0 1.16748,-0.72108 9.4858,-8.36449 3.79432,-4.18225 2.04309,-1.44215 4.23212,-2.8843 6.42115,-4.03803 0.29187,-0.14421 5.83742,-3.17273 2.0431,-1.15372 -3.64839,1.8748 1.89716,-0.57686 2.33496,-0.72107 1.89716,-0.57687 5.69148,-2.45167 7.58864,-1.8748 -4.37806,-1.15373 -2.9187,0.28843 0,0.14421 1.45936,-0.14421 1.16749,0 3.06465,-0.14421 h 649.85012 c 1.75123,0 3.35652,0.14421 5.10774,0.28843 3.94026,0 -6.12928,-1.58637 0,0 1.89716,0.57686 3.79432,0.86529 5.69148,1.44215 1.02155,0.28843 2.91871,0.72108 3.64838,1.29794 -4.37806,-3.02852 -2.33496,-1.15372 -1.02154,-0.28843 2.77277,1.73058 5.54554,3.17273 8.17238,5.04753 -4.66993,-3.31695 0.14593,0.43265 1.89716,2.16323 0.29187,0.28843 4.66993,4.61489 1.75122,1.58637 -2.62684,-2.59587 1.31342,1.8748 1.75123,2.74009 0.87561,1.29794 1.60528,2.74009 2.33496,4.18225 0.87561,1.29793 2.77277,3.31694 -0.29187,-1.00951 1.45935,2.01901 2.0431,5.91282 2.62684,8.36448 0.4378,2.16323 2.4809,4.90332 0.14593,-0.14421 0.43781,0.86529 0.29187,3.31695 0.29187,4.03803 v 2.01901 c 0.43781,25.23768 0,50.47536 0,75.56883 v 678.53309 c 0,1.29794 -0.14593,2.74009 -0.14593,4.03803 0,6.34548 1.02154,-3.7496 0,0 -0.72968,2.74009 -1.45936,5.6244 -2.33497,8.36449 -1.60529,4.90332 0.43781,-0.57686 0.43781,-0.86529 0,1.15372 -1.60529,3.17273 -2.18903,4.18224 -0.72968,1.44216 -1.75123,2.59588 -2.62684,4.03803 -1.02155,1.58637 -2.91871,2.45166 0.58374,-0.72108 -1.75122,1.58637 -4.81586,4.18225 -5.98335,6.05705 -1.75122,2.74009 4.81587,-2.88431 0,0 -1.02154,0.72107 -2.18903,1.44215 -3.21057,2.01901 -1.02155,0.72108 -2.33497,1.15373 -3.35652,1.8748 -5.10774,3.17274 3.64839,-1.00951 0.14594,0.14422 -2.77277,0.86529 -5.54555,1.73058 -8.46425,2.45166 -4.96181,1.29794 0.58374,0.14421 1.02154,0 -1.45935,0.57686 -4.37806,0.28843 -5.98335,0.28843 -13.71792,0.28843 -26.8521,11.82565 -26.26836,25.95876 0.58374,13.84467 11.52889,26.24718 26.26836,25.95875 47.57493,-0.86529 84.49657,-38.79392 84.64251,-85.51968 V 855.69716 705.71322 495.30307 289.94045 155.24334 c 0,-6.77812 0.14594,-13.55624 0,-20.33436 -0.72968,-47.302624 -39.40255,-83.500669 -86.83154,-83.644885 -36.04603,-0.144215 -72.238,0 -108.28403,0 H 192.73398 c -2.9187,0 -5.83741,0 -8.75612,0.144216 -32.39765,1.730583 -61.87659,20.911221 -74.57296,50.619579 -6.56709,15.28682 -7.0049,30.42943 -7.0049,46.43733 v 735.64236 c 0,33.31374 15.76102,65.18532 47.28305,80.0395 17.36631,8.07606 34.58668,8.65292 53.12047,8.65292 h 634.08911 c 13.71793,0 26.85211,-11.96987 26.26837,-25.95876 -0.72968,-14.27732 -11.67483,-26.10297 -26.26837,-26.10297 z"
     p-id="19387"
     id="path6"
     style="stroke-width:1.45073" />
  <path
     d="m 347.13359,287.20036 h -72.52987 c -13.71793,0 -26.85211,11.96987 -26.26837,25.95875 0.58375,14.13311 11.5289,25.95876 26.26837,25.95876 h 72.52987 c 13.71792,0 26.8521,-11.96987 26.26836,-25.95876 -0.58374,-13.98888 -11.52889,-25.95875 -26.26836,-25.95875 z m 0,198.72871 h -72.52987 c -13.71793,0 -26.85211,11.96987 -26.26837,25.95876 0.58375,14.1331 11.5289,25.95876 26.26837,25.95876 h 72.52987 c 13.71792,0 26.8521,-11.96987 26.26836,-25.95876 -0.58374,-14.1331 -11.52889,-25.95876 -26.26836,-25.95876 z m 0,198.72872 h -72.52987 c -13.71793,0 -26.85211,11.96987 -26.26837,25.95875 0.58375,14.13311 11.5289,25.95876 26.26837,25.95876 h 72.52987 c 13.71792,0 26.8521,-11.96987 26.26836,-25.95876 -0.58374,-14.1331 -11.52889,-25.95875 -26.26836,-25.95875 z M 749.03955,287.20036 H 447.53711 c -13.71792,0 -26.8521,11.96987 -26.26836,25.95875 0.58374,14.13311 11.52889,25.95876 26.26836,25.95876 h 301.50244 c 13.71793,0 26.85211,-11.96987 26.26837,-25.95876 -0.58375,-13.98888 -11.5289,-25.95875 -26.26837,-25.95875 z m 0,198.72871 H 447.53711 c -13.71792,0 -26.8521,11.96987 -26.26836,25.95876 0.58374,14.1331 11.52889,25.95876 26.26836,25.95876 h 301.50244 c 13.71793,0 26.85211,-11.96987 26.26837,-25.95876 -0.58375,-14.1331 -11.5289,-25.95876 -26.26837,-25.95876 z m 0,198.72872 H 447.53711 c -13.71792,0 -26.8521,11.96987 -26.26836,25.95875 0.58374,14.13311 11.52889,25.95876 26.26836,25.95876 h 301.50244 c 13.71793,0 26.85211,-11.96987 26.26837,-25.95876 -0.58375,-14.1331 -11.5289,-25.95875 -26.26837,-25.95875 z"
     p-id="19388"
     id="path8"
     style="stroke-width:1.45073" />
  <g
     inkscape:groupmode="layer"
     id="layer1"
     inkscape:label="edit">
    <rect
       style="fill:#ffffff;stroke-width:10.24"
       id="rect924"
       width="409.60001"
       height="409.60001"
       x="0"
       y="0" />
    <path
       sodipodi:type="star"
       style="fill:#ff0000"
       id="path1223"
       inkscape:flatsided="false"
       sodipodi:sides="5"
       sodipodi:cx="56.113281"
       sodipodi:cy="44.628906"
       sodipodi:r1="16.148258"
       sodipodi:r2="8.0741291"
       sodipodi:arg1="0.9111254"
       sodipodi:arg2="1.5394439"
       inkscape:rounded="0.5"
       inkscape:randomized="0"
       d="m 66.009852,57.389162 c -4.236823,3.285986 -4.284353,-4.858171 -9.643469,-4.690095 -5.359115,0.168077 -4.896209,8.299206 -9.330618,5.285173 -4.434408,-3.014032 3.296458,-5.575919 1.48055,-10.620802 -1.815908,-5.044884 -9.406026,-2.091977 -7.909818,-7.240737 1.496208,-5.148761 6.321676,1.412063 10.558499,-1.873923 4.236823,-3.285985 -0.917034,-9.592118 4.442082,-9.760194 5.359115,-0.168076 0.610553,6.448623 5.044961,9.462655 4.434409,3.014033 8.839267,-3.836278 10.655175,1.208605 1.815908,5.044883 -5.944333,2.573405 -7.440541,7.722165 -1.496208,5.14876 6.380002,7.221167 2.143179,10.507153 z"
       transform="matrix(11.498818,0,0,11.88005,-439.09541,-312.80847)"
       inkscape:transform-center-x="1.7987314"
       inkscape:transform-center-y="-16.542889" />
  </g>
</svg>
