<?xml version="1.0" standalone="no"?><!DOCTYPE svg PUBLIC "-//W3C//DTD SVG 1.1//EN" "http://www.w3.org/Graphics/SVG/1.1/DTD/svg11.dtd"><svg t="1639565129576" class="icon" viewBox="0 0 1024 1024" version="1.1" xmlns="http://www.w3.org/2000/svg" p-id="19386" xmlns:xlink="http://www.w3.org/1999/xlink" width="200" height="200"><defs><style type="text/css"></style></defs><path d="M734.7 795.5H289.4c-0.7 0-1.4 0-2.1-0.1-2-0.1-3 0.9 0 0.1-1 0.3-3.1-0.6-4-0.9-0.9-0.2-1.7-0.5-2.6-0.8-3.4-1.1 0.4 0.3 0.6 0.3-1.4 0.1-4.5-2.6-5.7-3.3-1.1-0.7-1.7-2 0.5 0.4-0.6-0.6-1.3-1.2-1.9-1.8-0.7-0.7-1.4-1.8-2.2-2.4-0.9-1-0.6-0.6 0.8 1.1-0.4-0.5-0.8-1.1-1.1-1.6-0.6-1-3-3.8-2.9-5.1 0 0.2 1.4 4 0.3 0.6-0.3-0.9-0.6-1.7-0.8-2.6-0.3-1.1-0.5-2.2-0.8-3.3-0.7-2.5 0 4.4 0 0 0-0.9-0.1-1.9-0.1-2.8v-4-73.4V564 416.4 297.3v-35.2-9.1-2.1-0.4-0.1c0-0.9 0.1-1.9 0.1-2.8 0.2-4.4-1 3.6 0.1-0.6 0.5-2 1.1-3.9 1.7-5.8 0.8-2.5-2.1 3.6 0.1 0.1 0.5-0.7 0.8-1.6 1.3-2.3 0.5-0.8 1-1.5 1.4-2.2 2.1-3.3-1.9 1.2 0 0 0.8-0.5 6.5-5.8 2.6-2.9 1.4-1 2.9-2 4.4-2.8 0.2-0.1 4-2.2 1.4-0.8-2.5 1.3 1.3-0.4 1.6-0.5 1.3-0.4 3.9-1.7 5.2-1.3-3-0.8-2 0.2 0 0.1 1-0.1 0.8 0 2.1-0.1H734.7c1.2 0 2.3 0.1 3.5 0.2 2.7 0-4.2-1.1 0 0 1.3 0.4 2.6 0.6 3.9 1 0.7 0.2 2 0.5 2.5 0.9-3-2.1-1.6-0.8-0.7-0.2 1.9 1.2 3.8 2.2 5.6 3.5-3.2-2.3 0.1 0.3 1.3 1.5 0.2 0.2 3.2 3.2 1.2 1.1-1.8-1.8 0.9 1.3 1.2 1.9 0.6 0.9 1.1 1.9 1.6 2.9 0.6 0.9 1.9 2.3-0.2-0.7 1 1.4 1.4 4.1 1.8 5.8 0.3 1.5 1.7 3.4 0.1-0.1 0.3 0.6 0.2 2.3 0.2 2.8v1.4c0.3 17.5 0 35 0 52.4v470.5c0 0.9-0.1 1.9-0.1 2.8 0 4.4 0.7-2.6 0 0-0.5 1.9-1 3.9-1.6 5.8-1.1 3.4 0.3-0.4 0.3-0.6 0 0.8-1.1 2.2-1.5 2.9-0.5 1-1.2 1.8-1.8 2.8-0.7 1.1-2 1.7 0.4-0.5-1.2 1.1-3.3 2.9-4.1 4.2-1.2 1.9 3.3-2 0 0-0.7 0.5-1.5 1-2.2 1.4-0.7 0.5-1.6 0.8-2.3 1.3-3.5 2.2 2.5-0.7 0.1 0.1-1.9 0.6-3.8 1.2-5.8 1.7-3.4 0.9 0.4 0.1 0.7 0-1 0.4-3 0.2-4.1 0.2-9.4 0.2-18.4 8.2-18 18 0.4 9.6 7.9 18.2 18 18 32.6-0.6 57.9-26.9 58-59.3v-21.8-104-145.9-142.4-93.4c0-4.7 0.1-9.4 0-14.1-0.5-32.8-27-57.9-59.5-58-24.7-0.1-49.5 0-74.2 0H293.3c-2 0-4 0-6 0.1-22.2 1.2-42.4 14.5-51.1 35.1-4.5 10.6-4.8 21.1-4.8 32.2v510.1c0 23.1 10.8 45.2 32.4 55.5 11.9 5.6 23.7 6 36.4 6h434.5c9.4 0 18.4-8.3 18-18-0.5-9.9-8-18.1-18-18.1z" p-id="19387"></path><path d="M399.1 356.2h-49.7c-9.4 0-18.4 8.3-18 18 0.4 9.8 7.9 18 18 18h49.7c9.4 0 18.4-8.3 18-18-0.4-9.7-7.9-18-18-18zM399.1 494h-49.7c-9.4 0-18.4 8.3-18 18 0.4 9.8 7.9 18 18 18h49.7c9.4 0 18.4-8.3 18-18-0.4-9.8-7.9-18-18-18zM399.1 631.8h-49.7c-9.4 0-18.4 8.3-18 18 0.4 9.8 7.9 18 18 18h49.7c9.4 0 18.4-8.3 18-18-0.4-9.8-7.9-18-18-18zM674.5 356.2H467.9c-9.4 0-18.4 8.3-18 18 0.4 9.8 7.9 18 18 18h206.6c9.4 0 18.4-8.3 18-18-0.4-9.7-7.9-18-18-18zM674.5 494H467.9c-9.4 0-18.4 8.3-18 18 0.4 9.8 7.9 18 18 18h206.6c9.4 0 18.4-8.3 18-18-0.4-9.8-7.9-18-18-18zM674.5 631.8H467.9c-9.4 0-18.4 8.3-18 18 0.4 9.8 7.9 18 18 18h206.6c9.4 0 18.4-8.3 18-18-0.4-9.8-7.9-18-18-18z" p-id="19388"></path></svg>