<?xml version="1.0" encoding="UTF-8" standalone="no"?>
<svg
   t="1639565129576"
   class="icon"
   viewBox="0 0 1024 1024"
   version="1.1"
   p-id="19386"
   width="200"
   height="200"
   id="svg10"
   sodipodi:docname="file.svg"
   inkscape:version="1.1 (c68e22c387, 2021-05-23)"
   xmlns:inkscape="http://www.inkscape.org/namespaces/inkscape"
   xmlns:sodipodi="http://sodipodi.sourceforge.net/DTD/sodipodi-0.dtd"
   xmlns="http://www.w3.org/2000/svg"
   xmlns:svg="http://www.w3.org/2000/svg">
  <sodipodi:namedview
     id="namedview12"
     pagecolor="#ffffff"
     bordercolor="#666666"
     borderopacity="1.0"
     inkscape:pageshadow="2"
     inkscape:pageopacity="0.0"
     inkscape:pagecheckerboard="0"
     showgrid="false"
     inkscape:zoom="4.06"
     inkscape:cx="99.876847"
     inkscape:cy="87.315271"
     inkscape:window-width="1920"
     inkscape:window-height="1001"
     inkscape:window-x="-9"
     inkscape:window-y="-9"
     inkscape:window-maximized="1"
     inkscape:current-layer="svg10" />
  <defs
     id="defs4">
    <style
       type="text/css"
       id="style2" />
  </defs>
  <path
     d="M 836.88922,920.73826 H 187.04136 c -1.02151,0 -2.04303,0 -3.06453,-0.14421 -2.91872,-0.14422 -4.378,1.29792 0,0.14421 -1.45944,0.43263 -4.52394,-0.86529 -5.83738,-1.29794 -1.31342,-0.28843 -2.48089,-0.72108 -3.79431,-1.15373 -4.96171,-1.58636 0.58347,0.43265 0.87559,0.43265 -2.04308,0.14422 -6.56695,-3.74961 -8.31833,-4.75909 -1.60539,-1.00952 -2.48094,-2.88431 0.72967,0.57685 -0.87557,-0.86529 -1.8972,-1.7306 -2.77266,-2.59588 -1.02149,-1.00951 -2.04324,-2.59588 -3.21084,-3.46115 -1.31305,-1.44216 -0.87538,-0.86531 1.1676,1.58635 -0.58361,-0.72108 -1.1676,-1.58635 -1.60523,-2.30743 -0.87542,-1.44216 -4.37827,-5.48019 -4.23208,-7.35499 0,0.28843 2.04316,5.7686 0.43781,0.86529 -0.43781,-1.29794 -0.87554,-2.45167 -1.16747,-3.7496 -0.43782,-1.58637 -0.72958,-3.17274 -1.16738,-4.7591 -1.02158,-3.60539 0,6.34547 0,0 0,-1.29795 -0.14709,-2.74009 -0.14709,-4.03803 V 882.95384 777.09979 586.8798 374.01797 202.25753 v -50.76379 -13.1236 -3.02852 -0.57687 -0.14421 c 0,-1.29794 0.14709,-2.7401 0.14709,-4.03802 0.29187,-6.34547 -1.45947,5.19175 0.14701,-0.86529 0.72963,-2.88431 1.60518,-5.62441 2.48095,-8.36449 1.1674,-3.60539 -3.06465,5.19175 0.14687,0.14421 0.72988,-1.00952 1.1676,-2.30745 1.89734,-3.31695 0.7296,-1.15373 1.45938,-2.16324 2.04305,-3.17273 3.06467,-4.75911 -2.77279,1.73057 0,0 1.16747,-0.72108 9.48575,-8.36449 3.79434,-4.18226 2.04294,-1.44215 4.23227,-2.88431 6.4211,-4.03802 0.29183,-0.14421 5.83745,-3.17273 2.04305,-1.15372 -3.64827,1.87479 1.89705,-0.57687 2.33494,-0.72108 1.89734,-0.57687 5.69148,-2.45166 7.5887,-1.8748 -4.37814,-1.15372 -2.91878,0.28844 0,0.14422 1.4593,-0.14422 1.16749,0 3.06458,-0.14422 h 649.84776 c 1.75115,0 3.35666,0.14422 5.10789,0.28844 3.9401,0 -6.12939,-1.58638 0,0 1.89704,0.57685 3.79408,0.86528 5.69126,1.44215 1.02166,0.28842 2.91864,0.72108 3.64846,1.29794 -4.37838,-3.02853 -2.33497,-1.15373 -1.0216,-0.28844 2.77274,1.73058 5.54554,3.17274 8.17239,5.04753 -4.66994,-3.31695 0.14702,0.43265 1.89706,2.16323 0.29191,0.28844 4.66969,4.6149 1.75121,1.58637 -2.6267,-2.59587 1.31349,1.87479 1.75117,2.7401 0.87575,1.29793 1.60534,2.74008 2.33493,4.18224 0.8758,1.29794 2.77288,3.31695 -0.29167,-1.00952 1.45928,2.01902 2.04303,5.91285 2.62689,8.36449 0.43766,2.16324 2.48066,4.90334 0.14687,-0.1442 0.43802,0.86528 0.29197,3.31695 0.29197,4.03803 v 2.019 c 0.43788,25.23769 0,50.47538 0,75.56884 v 678.53308 c 0,1.29795 -0.14708,2.7401 -0.14708,4.03803 0,6.34549 1.02129,-3.7496 0,0 -0.72968,2.7401 -1.45937,5.62441 -2.33501,8.36449 -1.6052,4.90331 0.43782,-0.57686 0.43782,-0.86529 0,1.15372 -1.60528,3.17273 -2.18897,4.18224 -0.72974,1.44215 -1.75124,2.59587 -2.62692,4.03803 -1.02144,1.58636 -2.91864,2.45167 0.58381,-0.72108 -1.75128,1.58636 -4.81586,4.18223 -5.98338,6.05706 -1.75117,2.74008 4.81589,-2.88431 0,0 -1.02153,0.72108 -2.18908,1.44214 -3.21039,2.019 -1.02168,0.72108 -2.33509,1.15372 -3.3566,1.8748 -5.10776,3.17274 3.64835,-1.0095 0.14701,0.14421 -2.77278,0.8653 -5.54552,1.73059 -8.46426,2.45167 -4.96173,1.29794 0.58369,0.14422 1.02146,0 -1.45923,0.57686 -4.378,0.28843 -5.98319,0.28843 -13.71794,0.28843 -26.85202,11.82565 -26.26841,25.95876 0.58401,13.84466 11.52897,26.24719 26.26841,25.95875 47.57465,-0.86529 84.49617,-38.79392 84.64221,-85.51967 V 855.69715 705.71322 495.30306 289.94046 155.24334 c 0,-6.77812 0.14659,-13.55625 0,-20.33436 -0.72972,-47.302627 -39.40248,-83.50066 -86.83118,-83.644885 -36.04606,-0.144214 -72.2379,0 -108.28385,0 H 192.7337 c -2.91881,0 -5.83752,0 -8.75612,0.144225 -32.39744,1.730565 -61.87637,20.911207 -74.57271,50.61957 -6.56708,15.28682 -7.00487,30.42942 -7.00487,46.43733 v 735.64234 c 0,33.31375 15.76071,65.18533 47.28288,80.0395 17.36627,8.07607 34.58658,8.65294 53.12026,8.65294 h 634.08669 c 13.71781,0 26.85198,-11.96989 26.26823,-25.95877 -0.72967,-14.27732 -11.6748,-26.10297 -26.26823,-26.10297 z"
     p-id="19387"
     id="path6"
     style="stroke-width:1.4507" />
  <path
     d="m 347.13189,287.20036 h -72.52956 c -13.71792,0 -26.85202,11.96988 -26.2682,25.95876 0.58372,14.13308 11.5288,25.95877 26.2682,25.95877 h 72.52956 c 13.71798,0 26.85203,-11.96988 26.26841,-25.95877 -0.58399,-13.98888 -11.52881,-25.95876 -26.26841,-25.95876 z m 0,198.72871 h -72.52956 c -13.71792,0 -26.85202,11.96986 -26.2682,25.95874 0.58372,14.13312 11.5288,25.95877 26.2682,25.95877 h 72.52956 c 13.71798,0 26.85203,-11.96986 26.26841,-25.95877 -0.58399,-14.13309 -11.52881,-25.95874 -26.26841,-25.95874 z m 0,198.72872 h -72.52956 c -13.71792,0 -26.85202,11.96986 -26.2682,25.95874 0.58372,14.13312 11.5288,25.95877 26.2682,25.95877 h 72.52956 c 13.71798,0 26.85203,-11.96988 26.26841,-25.95877 -0.58399,-14.13309 -11.52881,-25.95874 -26.26841,-25.95874 z M 749.03645,287.20036 h -301.5012 c -13.71804,0 -26.85208,11.96988 -26.26838,25.95876 0.58376,14.13308 11.52882,25.95877 26.26838,25.95877 h 301.5012 c 13.71784,0 26.8518,-11.96988 26.2682,-25.95877 -0.58388,-13.98888 -11.52885,-25.95876 -26.2682,-25.95876 z m 0,198.72871 h -301.5012 c -13.71804,0 -26.85208,11.96986 -26.26838,25.95874 0.58376,14.13312 11.52882,25.95877 26.26838,25.95877 h 301.5012 c 13.71784,0 26.8518,-11.96986 26.2682,-25.95877 -0.58388,-14.13309 -11.52885,-25.95874 -26.2682,-25.95874 z m 0,198.72872 h -301.5012 c -13.71804,0 -26.85208,11.96986 -26.26838,25.95874 0.58376,14.13312 11.52882,25.95877 26.26838,25.95877 h 301.5012 c 13.71784,0 26.8518,-11.96988 26.2682,-25.95877 -0.58388,-14.13309 -11.52885,-25.95874 -26.2682,-25.95874 z"
     p-id="19388"
     id="path8"
     style="stroke-width:1.4507" />
</svg>
