<?xml version="1.0" encoding="UTF-8" standalone="no"?>
<svg
   t="1639565129576"
   class="icon"
   viewBox="0 0 1024 1024"
   version="1.1"
   p-id="19386"
   width="200"
   height="200"
   id="svg10"
   sodipodi:docname="fileEdit.svg"
   inkscape:version="1.1 (c68e22c387, 2021-05-23)"
   xmlns:inkscape="http://www.inkscape.org/namespaces/inkscape"
   xmlns:sodipodi="http://sodipodi.sourceforge.net/DTD/sodipodi-0.dtd"
   xmlns="http://www.w3.org/2000/svg"
   xmlns:svg="http://www.w3.org/2000/svg">
  <sodipodi:namedview
     id="namedview12"
     pagecolor="#ffffff"
     bordercolor="#666666"
     borderopacity="1.0"
     inkscape:pageshadow="2"
     inkscape:pageopacity="0.0"
     inkscape:pagecheckerboard="0"
     showgrid="false"
     inkscape:zoom="4.06"
     inkscape:cx="99.876847"
     inkscape:cy="80.418719"
     inkscape:window-width="1920"
     inkscape:window-height="1001"
     inkscape:window-x="-9"
     inkscape:window-y="-9"
     inkscape:window-maximized="1"
     inkscape:current-layer="layer1" />
  <defs
     id="defs4">
    <style
       type="text/css"
       id="style2" />
  </defs>
  <path
     d="M734.7 795.5H289.4c-0.7 0-1.4 0-2.1-0.1-2-0.1-3 0.9 0 0.1-1 0.3-3.1-0.6-4-0.9-0.9-0.2-1.7-0.5-2.6-0.8-3.4-1.1 0.4 0.3 0.6 0.3-1.4 0.1-4.5-2.6-5.7-3.3-1.1-0.7-1.7-2 0.5 0.4-0.6-0.6-1.3-1.2-1.9-1.8-0.7-0.7-1.4-1.8-2.2-2.4-0.9-1-0.6-0.6 0.8 1.1-0.4-0.5-0.8-1.1-1.1-1.6-0.6-1-3-3.8-2.9-5.1 0 0.2 1.4 4 0.3 0.6-0.3-0.9-0.6-1.7-0.8-2.6-0.3-1.1-0.5-2.2-0.8-3.3-0.7-2.5 0 4.4 0 0 0-0.9-0.1-1.9-0.1-2.8v-4-73.4V564 416.4 297.3v-35.2-9.1-2.1-0.4-0.1c0-0.9 0.1-1.9 0.1-2.8 0.2-4.4-1 3.6 0.1-0.6 0.5-2 1.1-3.9 1.7-5.8 0.8-2.5-2.1 3.6 0.1 0.1 0.5-0.7 0.8-1.6 1.3-2.3 0.5-0.8 1-1.5 1.4-2.2 2.1-3.3-1.9 1.2 0 0 0.8-0.5 6.5-5.8 2.6-2.9 1.4-1 2.9-2 4.4-2.8 0.2-0.1 4-2.2 1.4-0.8-2.5 1.3 1.3-0.4 1.6-0.5 1.3-0.4 3.9-1.7 5.2-1.3-3-0.8-2 0.2 0 0.1 1-0.1 0.8 0 2.1-0.1H734.7c1.2 0 2.3 0.1 3.5 0.2 2.7 0-4.2-1.1 0 0 1.3 0.4 2.6 0.6 3.9 1 0.7 0.2 2 0.5 2.5 0.9-3-2.1-1.6-0.8-0.7-0.2 1.9 1.2 3.8 2.2 5.6 3.5-3.2-2.3 0.1 0.3 1.3 1.5 0.2 0.2 3.2 3.2 1.2 1.1-1.8-1.8 0.9 1.3 1.2 1.9 0.6 0.9 1.1 1.9 1.6 2.9 0.6 0.9 1.9 2.3-0.2-0.7 1 1.4 1.4 4.1 1.8 5.8 0.3 1.5 1.7 3.4 0.1-0.1 0.3 0.6 0.2 2.3 0.2 2.8v1.4c0.3 17.5 0 35 0 52.4v470.5c0 0.9-0.1 1.9-0.1 2.8 0 4.4 0.7-2.6 0 0-0.5 1.9-1 3.9-1.6 5.8-1.1 3.4 0.3-0.4 0.3-0.6 0 0.8-1.1 2.2-1.5 2.9-0.5 1-1.2 1.8-1.8 2.8-0.7 1.1-2 1.7 0.4-0.5-1.2 1.1-3.3 2.9-4.1 4.2-1.2 1.9 3.3-2 0 0-0.7 0.5-1.5 1-2.2 1.4-0.7 0.5-1.6 0.8-2.3 1.3-3.5 2.2 2.5-0.7 0.1 0.1-1.9 0.6-3.8 1.2-5.8 1.7-3.4 0.9 0.4 0.1 0.7 0-1 0.4-3 0.2-4.1 0.2-9.4 0.2-18.4 8.2-18 18 0.4 9.6 7.9 18.2 18 18 32.6-0.6 57.9-26.9 58-59.3v-21.8-104-145.9-142.4-93.4c0-4.7 0.1-9.4 0-14.1-0.5-32.8-27-57.9-59.5-58-24.7-0.1-49.5 0-74.2 0H293.3c-2 0-4 0-6 0.1-22.2 1.2-42.4 14.5-51.1 35.1-4.5 10.6-4.8 21.1-4.8 32.2v510.1c0 23.1 10.8 45.2 32.4 55.5 11.9 5.6 23.7 6 36.4 6h434.5c9.4 0 18.4-8.3 18-18-0.5-9.9-8-18.1-18-18.1z"
     p-id="19387"
     id="path6" />
  <path
     d="M399.1 356.2h-49.7c-9.4 0-18.4 8.3-18 18 0.4 9.8 7.9 18 18 18h49.7c9.4 0 18.4-8.3 18-18-0.4-9.7-7.9-18-18-18zM399.1 494h-49.7c-9.4 0-18.4 8.3-18 18 0.4 9.8 7.9 18 18 18h49.7c9.4 0 18.4-8.3 18-18-0.4-9.8-7.9-18-18-18zM399.1 631.8h-49.7c-9.4 0-18.4 8.3-18 18 0.4 9.8 7.9 18 18 18h49.7c9.4 0 18.4-8.3 18-18-0.4-9.8-7.9-18-18-18zM674.5 356.2H467.9c-9.4 0-18.4 8.3-18 18 0.4 9.8 7.9 18 18 18h206.6c9.4 0 18.4-8.3 18-18-0.4-9.7-7.9-18-18-18zM674.5 494H467.9c-9.4 0-18.4 8.3-18 18 0.4 9.8 7.9 18 18 18h206.6c9.4 0 18.4-8.3 18-18-0.4-9.8-7.9-18-18-18zM674.5 631.8H467.9c-9.4 0-18.4 8.3-18 18 0.4 9.8 7.9 18 18 18h206.6c9.4 0 18.4-8.3 18-18-0.4-9.8-7.9-18-18-18z"
     p-id="19388"
     id="path8" />
  <g
     inkscape:groupmode="layer"
     id="layer1"
     inkscape:label="edit">
    <rect
       style="fill:#ffffff;stroke-width:7.67999"
       id="rect924"
       width="307.20001"
       height="307.20001"
       x="92.160004"
       y="46.080002" />
    <path
       sodipodi:type="star"
       style="fill:#ff0000"
       id="path1223"
       inkscape:flatsided="false"
       sodipodi:sides="5"
       sodipodi:cx="56.113281"
       sodipodi:cy="44.628906"
       sodipodi:r1="16.148258"
       sodipodi:r2="8.0741291"
       sodipodi:arg1="0.9111254"
       sodipodi:arg2="1.5394439"
       inkscape:rounded="0.5"
       inkscape:randomized="0"
       d="m 66.009852,57.389162 c -4.236823,3.285986 -4.284353,-4.858171 -9.643469,-4.690095 -5.359115,0.168077 -4.896209,8.299206 -9.330618,5.285173 -4.434408,-3.014032 3.296458,-5.575919 1.48055,-10.620802 -1.815908,-5.044884 -9.406026,-2.091977 -7.909818,-7.240737 1.496208,-5.148761 6.321676,1.412063 10.558499,-1.873923 4.236823,-3.285985 -0.917034,-9.592118 4.442082,-9.760194 5.359115,-0.168076 0.610553,6.448623 5.044961,9.462655 4.434409,3.014033 8.839267,-3.836278 10.655175,1.208605 1.815908,5.044883 -5.944333,2.573405 -7.440541,7.722165 -1.496208,5.14876 6.380002,7.221167 2.143179,10.507153 z"
       transform="matrix(8.2134416,0,0,8.48575,-214.1653,-170.04033)"
       inkscape:transform-center-x="1.2847898"
       inkscape:transform-center-y="-11.816353" />
  </g>
</svg>
