<?xml version="1.0" standalone="no"?><!DOCTYPE svg PUBLIC "-//W3C//DTD SVG 1.1//EN" "http://www.w3.org/Graphics/SVG/1.1/DTD/svg11.dtd"><svg t="1639636921508" class="icon" viewBox="0 0 1024 1024" version="1.1" xmlns="http://www.w3.org/2000/svg" p-id="2684" xmlns:xlink="http://www.w3.org/1999/xlink" width="200" height="200"><defs><style type="text/css"></style></defs><path d="M512 64a448 448 0 1 0 0 896A448 448 0 0 0 512 64z m73.344 634.432L464 617.6c-10.112-6.72-15.68-19.392-15.744-33.216A33.28 33.28 0 0 1 448 580.544V293.76c1.408-19.776 16.64-37.76 35.776-37.76 19.84 0 36.16 18.752 36.16 37.76v257.728l104.32 69.504c16.192 10.752 20.608 40.768 9.856 62.144-10.688 21.376-32.512 26.048-48.768 15.296z" fill="#A0A7B4" p-id="2685"></path></svg>