<?xml version="1.0" standalone="no"?><!DOCTYPE svg PUBLIC "-//W3C//DTD SVG 1.1//EN" "http://www.w3.org/Graphics/SVG/1.1/DTD/svg11.dtd"><svg t="1619001235880" class="icon" viewBox="0 0 1024 1024" version="1.1" xmlns="http://www.w3.org/2000/svg" p-id="7024" width="32" height="32" xmlns:xlink="http://www.w3.org/1999/xlink"><defs><style type="text/css"></style></defs><path fill="#636363" d="M237.715179 402.291075H54.851961c-15.233098 0-28.188536 5.331884-38.856308 15.999656C5.329883 428.952499 0 441.903934 0 457.147039v109.725937c0 15.231096 5.329883 28.176527 15.995653 38.840296 10.667772 10.66577 23.62321 15.999656 38.856308 15.999656h182.863218c15.233098 0 28.188536-5.333886 38.856308-15.999656 10.667772-10.663769 15.995653-23.6092 15.995653-38.840296v-109.725937c0-15.243105-5.327881-28.19454-15.995653-38.856308s-23.62321-15.999656-38.856308-15.999656zM237.715179 109.707924H54.851961c-15.233098 0-28.188536 5.329883-38.856308 15.997654C5.329883 136.37335 0 149.328788 0 164.561886v109.721934c0 15.243105 5.329883 28.202546 15.995653 38.862312 10.667772 10.661767 23.62321 15.999656 38.856308 15.999656h182.863218c15.233098 0 28.188536-5.337889 38.856308-15.999656s15.995653-23.613203 15.995653-38.856308v-109.719932c0-15.233098-5.327881-28.188536-15.995653-38.862312-10.667772-10.663769-23.62321-15.999656-38.856308-15.999656zM237.715179 694.860217H54.851961c-15.233098 0-28.188536 5.327881-38.856308 15.999656C5.329883 721.529646 0 734.483082 0 749.71618v109.731941c0 15.231096 5.329883 28.192539 15.995653 38.848302 10.667772 10.671775 23.62321 15.993652 38.856308 15.993652h182.863218c15.233098 0 28.188536-5.329883 38.856308-15.993652 10.667772-10.655763 15.995653-23.617206 15.995653-38.848302v-109.731941c0-15.233098-5.327881-28.186534-15.995653-38.850303s-23.62321-16.00566-38.856308-16.00566zM969.136031 402.291075H420.568391c-15.239102 0-28.188536 5.331884-38.856308 15.999656s-15.995653 23.613203-15.995653 38.856308v109.725937c0 15.231096 5.327881 28.176527 15.995653 38.840296 10.661767 10.66577 23.617206 15.999656 38.856308 15.999656h548.58165c15.231096 0 28.190537-5.333886 38.848302-15.999656 10.671775-10.663769 15.999656-23.6092 15.999656-38.840296v-109.725937c0-15.243105-5.327881-28.19454-16.005661-38.856308-10.66577-10.667772-23.6092-15.999656-38.856307-15.999656zM969.136031 694.860217H420.568391c-15.239102 0-28.188536 5.327881-38.856308 15.999656-10.667772 10.669773-15.995653 23.617206-15.995653 38.848301v109.725937c0 15.233098 5.327881 28.198543 15.995653 38.862312 10.661767 10.663769 23.617206 15.985646 38.856308 15.985646h548.58165c15.231096 0 28.190537-5.327881 38.848302-15.985646 10.671775-10.669773 15.999656-23.629214 15.999656-38.862312v-109.725937c0-15.231096-5.327881-28.190537-16.005661-38.848301-10.66577-10.657764-23.6092-15.999656-38.856307-15.999656zM1007.992338 125.713584c-10.66577-10.661767-23.611201-15.997655-38.856307-15.997654H420.568391c-15.239102 0-28.188536 5.329883-38.856308 15.997654s-15.995653 23.62321-15.995653 38.856308v109.721934c0 15.243105 5.327881 28.186534 15.995653 38.856307 10.661767 10.661767 23.617206 15.999656 38.856308 15.999656h548.58165c15.231096 0 28.176527-5.337889 38.848302-15.999656s15.999656-23.613203 15.999656-38.856307V164.569892c0-15.235099-5.327881-28.188536-16.005661-38.856308z" p-id="7025"></path></svg>