<?xml version="1.0" standalone="no"?><!DOCTYPE svg PUBLIC "-//W3C//DTD SVG 1.1//EN" "http://www.w3.org/Graphics/SVG/1.1/DTD/svg11.dtd"><svg t="1641573371123" class="icon" viewBox="0 0 1024 1024" version="1.1" xmlns="http://www.w3.org/2000/svg" p-id="12349" xmlns:xlink="http://www.w3.org/1999/xlink" width="200" height="200"><defs><style type="text/css"></style></defs><path d="M972.8 953.6H51.2a25.6 25.6 0 0 1-25.6-25.6v-768a25.6 25.6 0 0 1 25.6-25.6h921.6a25.6 25.6 0 0 1 25.6 25.6v768a25.6 25.6 0 0 1-25.6 25.6z m-896-51.2h870.4V185.6H76.8v716.8z" p-id="12350" fill="#dbdbdb"></path><path d="M281.6 249.6a25.6 25.6 0 0 1-25.6-25.6v-128a25.6 25.6 0 1 1 51.2 0v128a25.6 25.6 0 0 1-25.6 25.6zM742.4 249.6a25.6 25.6 0 0 1-25.6-25.6v-128a25.6 25.6 0 1 1 51.2 0v128a25.6 25.6 0 0 1-25.6 25.6zM972.8 350.272H59.52a25.6 25.6 0 1 1 0-51.2H972.8a25.6 25.6 0 1 1 0 51.2zM461.888 556.8h-256a25.6 25.6 0 1 1 0-51.2h256a25.6 25.6 0 1 1 0 51.2zM717.824 752.512h-512a25.6 25.6 0 1 1 0-51.2h512a25.6 25.6 0 1 1 0 51.2z" p-id="12351" fill="#dbdbdb"></path></svg>