<?xml version="1.0" standalone="no"?><!DOCTYPE svg PUBLIC "-//W3C//DTD SVG 1.1//EN" "http://www.w3.org/Graphics/SVG/1.1/DTD/svg11.dtd"><svg t="1641564266992" class="icon" viewBox="0 0 1024 1024" version="1.1" xmlns="http://www.w3.org/2000/svg" p-id="4217" xmlns:xlink="http://www.w3.org/1999/xlink" width="200" height="200"><defs><style type="text/css"></style></defs><path d="M320.512 8.704h569.856c34.816 0 62.464 28.16 62.464 62.464V952.832c0 34.816-28.16 62.464-62.464 62.464H179.712c-34.816 0-62.464-28.16-62.464-62.464V198.656" fill="#52C0D1" p-id="4218"></path><path d="M331.776 226.816V76.8L184.32 224.256z" fill="#4B5C70" p-id="4219"></path><path d="M258.048 338.944h508.928v51.2h-508.928zM258.048 481.792h508.928v51.2h-508.928zM258.048 624.128h224.256v51.2h-224.256zM855.552 692.224l12.8-37.888s-20.992-10.752-55.296-14.848v-18.432h-31.744v20.992s-59.904 11.264-59.904 58.88c0 0-3.584 49.664 63.488 71.168 0 0 40.448 10.24 38.912 30.208 0 0-2.56 34.304-63.488 20.48 0 0-26.624-9.728-29.696-11.264l-9.216 41.472s26.112 11.264 58.368 11.776v23.04h33.28v-24.576s61.952-6.656 65.536-65.536c0 0 4.608-41.984-45.568-60.928 0 0-65.536-23.552-57.344-40.448 0 0 8.192-27.648 52.736-14.336l27.136 10.24z" fill="#FEFEFE" p-id="4220"></path></svg>