<?xml version="1.0" standalone="no"?><!DOCTYPE svg PUBLIC "-//W3C//DTD SVG 1.1//EN" "http://www.w3.org/Graphics/SVG/1.1/DTD/svg11.dtd"><svg t="1641573281014" class="icon" viewBox="0 0 1024 1024" version="1.1" xmlns="http://www.w3.org/2000/svg" p-id="10560" xmlns:xlink="http://www.w3.org/1999/xlink" width="200" height="200"><defs><style type="text/css"></style></defs><path d="M359.909581 839.72609l304.175721 0 1.237177-24.309662c0.132006-2.594081 0.198521-5.223978 0.198521-7.817036 0-64.683185-40.954761-120.05633-98.515734-142.021597 28.982078-18.240433 48.282656-50.491974 48.282656-87.167269 0-56.765865-46.230927-102.948697-103.057167-102.948697S409.172565 521.644661 409.172565 578.411549c0 36.601616 19.221784 68.796876 48.107671 87.056752-57.713446 21.889543-98.807377 77.339436-98.807377 142.132114 0 2.595105 0.066515 5.225001 0.198521 7.818059L359.909581 839.72609zM512.229732 526.686491c28.581965 0 51.833529 23.204491 51.833529 51.725058 0 28.522614-23.252587 51.728128-51.833529 51.728128s-51.834552-23.205515-51.834552-51.728128C460.39518 549.889959 483.64879 526.686491 512.229732 526.686491zM511.996418 706.696284c49.792033 0 91.38943 35.267225 100.464109 81.806167L411.533332 788.502451C420.608012 741.963509 462.205409 706.696284 511.996418 706.696284zM917.682068 165.442006 811.845601 165.442006 811.845601 91.962481c0-14.145162-11.466146-25.611308-25.611308-25.611308s-25.611308 11.467169-25.611308 25.611308l0 73.479525-486.704894 0L273.918092 91.962481c0-14.145162-11.467169-25.611308-25.611308-25.611308s-25.611308 11.467169-25.611308 25.611308l0 73.479525L106.311793 165.442006c-14.145162 0-25.611308 11.467169-25.611308 25.611308l0 740.02025c0 14.145162 11.467169 25.611308 25.611308 25.611308l811.371298 0c14.145162 0 25.611308-11.466146 25.611308-25.611308L943.294398 191.053314C943.294398 176.909176 931.827229 165.442006 917.682068 165.442006zM892.07076 905.462257 131.9231 905.462257 131.9231 410.394904 892.07076 410.394904 892.07076 905.462257zM892.07076 359.171266 131.9231 359.171266l0-142.505621 90.771353 0 0 71.458495c0 14.145162 11.467169 25.611308 25.611308 25.611308s25.611308-11.467169 25.611308-25.611308l0-71.458495 486.704894 0 0 71.458495c0 14.145162 11.466146 25.611308 25.611308 25.611308s25.611308-11.467169 25.611308-25.611308l0-71.458495L892.07076 216.665645 892.07076 359.171266z" p-id="10561" fill="#dbdbdb"></path></svg>