<?xml version="1.0" standalone="no"?><!DOCTYPE svg PUBLIC "-//W3C//DTD SVG 1.1//EN" "http://www.w3.org/Graphics/SVG/1.1/DTD/svg11.dtd"><svg t="1641564406213" class="icon" viewBox="0 0 1024 1024" version="1.1" xmlns="http://www.w3.org/2000/svg" p-id="5268" xmlns:xlink="http://www.w3.org/1999/xlink" width="200" height="200"><defs><style type="text/css"></style></defs><path d="M896.8 918.5H127.2c-34.8 0-63-28.2-63-63V336.1h895.5v519.4c0.1 34.8-28.1 63-62.9 63z" fill="#01AA7A" p-id="5269"></path><path d="M812.2 569.5H211.8c-33.5 0-60.7-27.2-60.7-60.7v-20.2c0-33.5 27.2-60.7 60.7-60.7h600.3c33.5 0 60.7 27.2 60.7 60.7v20.2c0 33.5-27.1 60.7-60.6 60.7zM620.9 769.4h-409c-33.5 0-60.7-27.2-60.7-60.7v-20.2c0-33.5 27.2-60.7 60.7-60.7h409c33.5 0 60.7 27.2 60.7 60.7v20.2c-0.1 33.6-27.2 60.7-60.7 60.7z" fill="#0D4D90" p-id="5270"></path><path d="M959.8 336H64.2v-76.1c0-34.8 28.2-63 63-63h769.5c34.8 0 63 28.2 63 63V336z" fill="#FFD301" p-id="5271"></path><path d="M310.9 309.9H302c-31.2 0-56.5-25.3-56.5-56.5v-87c0-31.2 25.3-56.5 56.5-56.5h8.9c31.2 0 56.5 25.3 56.5 56.5v87c0 31.2-25.3 56.5-56.5 56.5zM722 309.9h-8.9c-31.2 0-56.5-25.3-56.5-56.5v-87c0-31.2 25.3-56.5 56.5-56.5h8.9c31.2 0 56.5 25.3 56.5 56.5v87c-0.1 31.2-25.4 56.5-56.5 56.5z" fill="#01AA7A" p-id="5272"></path></svg>