<?xml version="1.0" standalone="no"?><!DOCTYPE svg PUBLIC "-//W3C//DTD SVG 1.1//EN" "http://www.w3.org/Graphics/SVG/1.1/DTD/svg11.dtd"><svg t="1641569075310" class="icon" viewBox="0 0 1024 1024" version="1.1" xmlns="http://www.w3.org/2000/svg" p-id="25791" xmlns:xlink="http://www.w3.org/1999/xlink" width="200" height="200"><defs><style type="text/css"></style></defs><path d="M83.2 334.933333c21.333333-23.466667 53.333333-36.266667 89.6-36.266666 34.133333 0 66.133333 14.933333 89.6 36.266666 23.466667 23.466667 36.266667 55.466667 36.266667 91.733334 0 34.133333-14.933333 68.266667-36.266667 89.6-49.066667 49.066667-130.133333 49.066667-177.066667 0-23.466667-23.466667-36.266667-55.466667-36.266666-89.6-2.133333-36.266667 10.666667-68.266667 34.133333-91.733334zM343.466667 725.333333H0v-14.933333c0-14.933333 2.133333-29.866667 6.4-42.666667 4.266667-12.8 12.8-25.6 21.333333-36.266666 17.066667-19.2 42.666667-32 70.4-32h145.066667c12.8 0 25.6 4.266667 38.4 8.533333 10.666667 6.4 23.466667 12.8 32 23.466667 8.533333 10.666667 17.066667 23.466667 21.333333 36.266666 4.266667 12.8 6.4 27.733333 6.4 42.666667v14.933333z" p-id="25792" fill="#ffffff"></path><path d="M934.4 145.066667H196.266667C147.2 145.066667 106.666667 185.6 106.666667 234.666667v21.333333c19.2-8.533333 40.533333-12.8 64-12.8 100.266667 0 181.333333 81.066667 181.333333 181.333333 0 46.933333-17.066667 89.6-46.933333 121.6 6.4 2.133333 12.8 6.4 19.2 8.533334 14.933333 10.666667 32 25.6 42.666666 44.8 12.8 21.333333 23.466667 44.8 29.866667 70.4 6.4 23.466667 8.533333 53.333333 8.533333 81.066666v27.733334H106.666667v6.4C106.666667 834.133333 147.2 874.666667 196.266667 874.666667h738.133333c49.066667 0 89.6-40.533333 89.6-89.6V232.533333c0-49.066667-40.533333-87.466667-89.6-87.466666z m23.466667 183.466666l-140.8 249.6c-4.266667 12.8-14.933333 19.2-27.733334 19.2-12.8 2.133333-23.466667-4.266667-32-12.8l-91.733333-106.666666-115.2 177.066666c-6.4 8.533333-14.933333 14.933333-25.6 17.066667h-6.4c-8.533333 0-17.066667-2.133333-23.466667-8.533333L405.333333 588.8c-14.933333-12.8-17.066667-36.266667-4.266666-53.333333 12.8-14.933333 36.266667-17.066667 53.333333-4.266667l55.466667 46.933333 119.466666-183.466666c6.4-10.666667 17.066667-17.066667 27.733334-17.066667s23.466667 4.266667 29.866666 12.8l89.6 104.533333 113.066667-204.8c10.666667-17.066667 32-23.466667 51.2-14.933333 21.333333 12.8 27.733333 36.266667 17.066667 53.333333z" p-id="25793" fill="#ffffff"></path></svg>