<?xml version="1.0" standalone="no"?><!DOCTYPE svg PUBLIC "-//W3C//DTD SVG 1.1//EN" "http://www.w3.org/Graphics/SVG/1.1/DTD/svg11.dtd"><svg t="1641573210703" class="icon" viewBox="0 0 1077 1024" version="1.1" xmlns="http://www.w3.org/2000/svg" p-id="8947" xmlns:xlink="http://www.w3.org/1999/xlink" width="210.3515625" height="200"><defs><style type="text/css"></style></defs><path d="M501.059368 615.585684h76.90779c21.557895 0 38.480842-16.922947 38.480842-38.426947 0-21.557895-16.922947-38.480842-38.480842-38.480842H501.059368c-21.557895 0-38.480842 16.922947-38.480842 38.480842 0 21.557895 16.922947 38.426947 38.480842 38.426947z m0 153.815579h76.90779c21.557895 0 38.480842-16.922947 38.480842-38.426947 0-21.557895-16.922947-38.480842-38.480842-38.480842H501.059368c-21.557895 0-38.480842 16.922947-38.480842 38.480842 0 21.557895 16.922947 38.426947 38.480842 38.426947z m422.965895-692.170105h-153.761684V38.804211c0-21.557895-16.922947-38.480842-38.480842-38.480843-21.557895 0-38.426947 16.922947-38.426948 38.480843v38.426947H385.724632V38.804211c0-21.557895-16.922947-38.480842-38.480843-38.480843-21.557895 0-38.426947 16.922947-38.426947 38.480843v38.426947H154.947368A154.246737 154.246737 0 0 0 1.185684 231.046737v615.262316a154.246737 154.246737 0 0 0 153.761684 153.815579h769.077895A154.246737 154.246737 0 0 0 1077.894737 846.309053V231.046737a154.246737 154.246737 0 0 0-153.869474-153.815579z m76.961684 769.077895c0 42.307368-34.654316 76.907789-76.961684 76.907789H154.947368a77.123368 77.123368 0 0 1-76.853894-76.907789V384.862316h922.893473v461.446737z m0-538.354527H78.093474V231.046737c0-42.307368 34.600421-76.907789 76.853894-76.90779H308.816842v38.480842c0 21.557895 16.869053 38.426947 38.426947 38.426948 21.557895 0 38.480842-16.922947 38.480843-38.426948V154.138947h307.631157v38.480842c0 21.557895 16.869053 38.426947 38.426948 38.426948 21.557895 0 38.480842-16.922947 38.480842-38.426948V154.138947h153.761684c42.307368 0 76.961684 34.600421 76.961684 76.90779v76.907789zM270.336 769.401263h76.907789c21.557895 0 38.480842-16.922947 38.480843-38.426947 0-21.557895-16.922947-38.480842-38.480843-38.480842H270.336c-21.557895 0-38.426947 16.922947-38.426947 38.480842 0 21.557895 16.869053 38.426947 38.426947 38.426947z m461.446737-153.815579h76.907789c21.557895 0 38.426947-16.922947 38.426948-38.426947 0-21.557895-16.869053-38.480842-38.426948-38.480842h-76.907789c-21.557895 0-38.426947 16.922947-38.426948 38.480842 0 21.557895 16.869053 38.426947 38.426948 38.426947z m-461.446737 0h76.907789c21.557895 0 38.480842-16.922947 38.480843-38.426947 0-21.557895-16.922947-38.480842-38.480843-38.480842H270.336c-21.557895 0-38.426947 16.922947-38.426947 38.480842 0 21.557895 16.869053 38.426947 38.426947 38.426947z m461.446737 153.815579h76.907789c21.557895 0 38.426947-16.922947 38.426948-38.426947 0-21.557895-16.869053-38.480842-38.426948-38.480842h-76.907789c-21.557895 0-38.426947 16.922947-38.426948 38.480842 0 21.557895 16.869053 38.426947 38.426948 38.426947z" fill="#e6e6e6" p-id="8948"></path></svg>