<?xml version="1.0" standalone="no"?><!DOCTYPE svg PUBLIC "-//W3C//DTD SVG 1.1//EN" "http://www.w3.org/Graphics/SVG/1.1/DTD/svg11.dtd"><svg t="1641564129162" class="icon" viewBox="0 0 1024 1024" version="1.1" xmlns="http://www.w3.org/2000/svg" p-id="2183" xmlns:xlink="http://www.w3.org/1999/xlink" width="200" height="200"><defs><style type="text/css"></style></defs><path d="M105.5 390.3c-1.5 0-2.9-0.3-4.4-0.4-0.8 138.4-4.9 319.8-1.4 420.2 1.2 34.7 19.3 58.1 51.4 59.4 208.3 8.7 513.3 7.8 718.4 6.4 28.8-0.2 41.3-20 42.3-47.3 3.9-98.4 10-293.6 10.1-439.1-2.3 0.4-4.7 0.7-7.1 0.7H105.5z" fill="#FB536C" p-id="2184"></path><path d="M914.9 141.9H105.5c-23.6 0-42.8 19.2-42.8 42.8v162.9c0 22.1 16.9 40.1 38.4 42.3 0.2-31.4 0.2-60.7-0.1-86.2-0.6-48.8 44.5-63.8 67.8-65.2 162.9-9.9 492-11.6 672.1-7.9 65 1.3 78.4 19.8 79.7 54.7 1.1 29.2 1.5 64.9 1.5 104.3 20.2-3.4 35.7-20.9 35.7-42.1V184.7c-0.1-23.6-19.2-42.8-42.9-42.8z" fill="#00A9DC" p-id="2185"></path><path d="M840.9 230.6c-180.1-3.7-509.2-2-672.1 7.9-23.3 1.4-68.4 16.4-67.8 65.2 0.3 25.5 0.3 54.8 0.1 86.2 1.5 0.2 2.9 0.4 4.4 0.4h809.4c2.4 0 4.8-0.3 7.1-0.7 0-39.4-0.4-75.2-1.5-104.3-1.2-34.9-14.6-53.3-79.6-54.7z" fill="#8F3694" p-id="2186"></path><path d="M489.5 723.2c-9.7 0-19.3-3.7-26.7-11.1l-85.3-85.3c-14.7-14.7-14.7-38.6 0-53.4 14.7-14.7 38.6-14.7 53.4 0l58.7 58.6 117.2-117.2c14.7-14.7 38.6-14.7 53.4 0 14.7 14.7 14.7 38.6 0 53.4l-144 143.9c-7.4 7.4-17 11.1-26.7 11.1z" fill="#FFBA3B" p-id="2187"></path></svg>