<?xml version="1.0" encoding="UTF-8" standalone="no"?>
<svg
   t="1637719982582"
   class="icon"
   viewBox="0 0 1024 1024"
   version="1.1"
   p-id="22365"
   width="48"
   height="48"
   id="svg14"
   sodipodi:docname="shopping.svg"
   inkscape:version="1.1 (c68e22c387, 2021-05-23)"
   xmlns:inkscape="http://www.inkscape.org/namespaces/inkscape"
   xmlns:sodipodi="http://sodipodi.sourceforge.net/DTD/sodipodi-0.dtd"
   xmlns="http://www.w3.org/2000/svg"
   xmlns:svg="http://www.w3.org/2000/svg">
  <sodipodi:namedview
     id="namedview16"
     pagecolor="#ffffff"
     bordercolor="#666666"
     borderopacity="1.0"
     inkscape:pageshadow="2"
     inkscape:pageopacity="0.0"
     inkscape:pagecheckerboard="0"
     showgrid="false"
     inkscape:zoom="17.458333"
     inkscape:cx="24"
     inkscape:cy="28.610979"
     inkscape:window-width="1920"
     inkscape:window-height="1001"
     inkscape:window-x="-9"
     inkscape:window-y="-9"
     inkscape:window-maximized="1"
     inkscape:current-layer="svg14" />
  <defs
     id="defs4">
    <style
       type="text/css"
       id="style2" />
  </defs>
  <path
     d="M 902.34387,311.3272 H 296.87783 l 34.36581,169.64261 h 497.43519 z"
     fill="#ffb966"
     p-id="22366"
     id="path6"
     style="stroke-width:1.09496" />
  <path
     d="m 346.15604,834.88713 m -68.50736,0 a 68.507363,68.507363 0 1 0 137.01472,0 68.507363,68.507363 0 1 0 -137.01472,0 z"
     fill="#ffb966"
     p-id="22367"
     id="path8"
     style="stroke-width:1.09496" />
  <path
     d="m 748.2864,834.88713 m -68.50736,0 a 68.507361,68.507361 0 1 0 137.01471,0 68.507361,68.507361 0 1 0 -137.01471,0 z"
     fill="#ffb966"
     p-id="22368"
     id="path10"
     style="stroke-width:1.09496" />
  <path
     d="M 977.6907,218.8815 A 33.743519,33.743519 0 0 0 949.8281,204.02516 H 229.54776 L 212.61714,121.6145 C 206.3943,91.397267 179.48469,69.42109 148.65078,69.42109 H 63.268851 c -18.556415,0 -33.637004,15.080586 -33.637004,33.637 0,18.55641 15.080589,33.63701 33.637004,33.63701 h 83.812199 l 101.97618,495.69728 c 8.63349,41.99019 46.02663,72.48774 88.9138,72.48774 h 487.73654 c 18.55641,0 33.63699,-15.08059 33.63699,-33.637 0,-18.55641 -15.08058,-33.63701 -33.63699,-33.63701 H 337.97103 c -11.1002,0 -20.79888,-7.90469 -22.98528,-18.78065 l -15.13666,-70.69377 539.7057,-2.85915 a 33.524879,33.524879 0 0 0 31.1703,-21.02312 L 980.9984,250.21997 c 4.14853,-10.25928 2.9152,-22.03223 -3.3077,-31.33847 z M 816.79375,478.11067 285.94581,480.96981 243.45106,271.35523 h 656.48216 z m -470.63771,254.6321 c -56.34198,0 -102.14437,45.80239 -102.14437,102.14436 0,56.34198 45.80239,102.14437 102.14437,102.14437 56.34198,0 102.14437,-45.80239 102.14437,-102.14437 0,-56.28591 -45.85846,-102.14436 -102.14437,-102.14436 z m 0,137.01472 c -19.22915,0 -34.87036,-15.64121 -34.87036,-34.87036 0,-19.22915 15.64121,-34.87036 34.87036,-34.87036 19.22915,0 34.87036,15.64121 34.87036,34.87036 0,19.22915 -15.69727,34.87036 -34.87036,34.87036 z M 748.2864,732.74277 c -56.34198,0 -102.14436,45.80239 -102.14436,102.14436 0,56.34198 45.80238,102.14437 102.14436,102.14437 56.34198,0 102.14436,-45.80239 102.14436,-102.14437 0,-56.28591 -45.80238,-102.14436 -102.14436,-102.14436 z m 0,137.01472 c -19.22916,0 -34.87036,-15.64121 -34.87036,-34.87036 0,-19.22915 15.6412,-34.87036 34.87036,-34.87036 19.22915,0 34.87036,15.64121 34.87036,34.87036 0,19.22915 -15.64121,34.87036 -34.87036,34.87036 z"
     fill="#5d5d66"
     p-id="22369"
     id="path12"
     style="stroke-width:1.09496" />
</svg>
