<?xml version="1.0" standalone="no"?><!DOCTYPE svg PUBLIC "-//W3C//DTD SVG 1.1//EN" "http://www.w3.org/Graphics/SVG/1.1/DTD/svg11.dtd"><svg t="1637719982582" class="icon" viewBox="0 0 1024 1024" version="1.1" xmlns="http://www.w3.org/2000/svg" p-id="22365" xmlns:xlink="http://www.w3.org/1999/xlink" width="48" height="48"><defs><style type="text/css"></style></defs><path d="M879.2064 344.1152h-552.96l31.3856 154.9312h454.2976z" fill="#FFB966" p-id="22366"></path><path d="M371.2512 822.272m-62.5664 0a62.5664 62.5664 0 1 0 125.1328 0 62.5664 62.5664 0 1 0-125.1328 0Z" fill="#FFB966" p-id="22367"></path><path d="M738.5088 822.272m-62.5664 0a62.5664 62.5664 0 1 0 125.1328 0 62.5664 62.5664 0 1 0-125.1328 0Z" fill="#FFB966" p-id="22368"></path><path d="M948.0192 259.6864a30.81728 30.81728 0 0 0-25.4464-13.568H264.7552l-15.4624-75.264c-5.6832-27.5968-30.2592-47.6672-58.4192-47.6672H112.896c-16.9472 0-30.72 13.7728-30.72 30.72s13.7728 30.72 30.72 30.72H189.44l93.1328 452.7104c7.8848 38.3488 42.0352 66.2016 81.2032 66.2016h445.44c16.9472 0 30.72-13.7728 30.72-30.72s-13.7728-30.72-30.72-30.72h-445.44c-10.1376 0-18.9952-7.2192-20.992-17.152l-13.824-64.5632 492.9024-2.6112a30.6176 30.6176 0 0 0 28.4672-19.2l100.7104-250.2656c3.7888-9.3696 2.6624-20.1216-3.0208-28.6208z m-146.944 236.7488l-484.8128 2.6112-38.8096-191.4368h599.552l-75.9296 188.8256zM371.2512 728.9856c-51.456 0-93.2864 41.8304-93.2864 93.2864 0 51.456 41.8304 93.2864 93.2864 93.2864s93.2864-41.8304 93.2864-93.2864c0-51.4048-41.8816-93.2864-93.2864-93.2864z m0 125.1328c-17.5616 0-31.8464-14.2848-31.8464-31.8464 0-17.5616 14.2848-31.8464 31.8464-31.8464s31.8464 14.2848 31.8464 31.8464c0 17.5616-14.336 31.8464-31.8464 31.8464zM738.5088 728.9856c-51.456 0-93.2864 41.8304-93.2864 93.2864 0 51.456 41.8304 93.2864 93.2864 93.2864 51.456 0 93.2864-41.8304 93.2864-93.2864 0-51.4048-41.8304-93.2864-93.2864-93.2864z m0 125.1328c-17.5616 0-31.8464-14.2848-31.8464-31.8464 0-17.5616 14.2848-31.8464 31.8464-31.8464 17.5616 0 31.8464 14.2848 31.8464 31.8464 0 17.5616-14.2848 31.8464-31.8464 31.8464z" fill="#5D5D66" p-id="22369"></path></svg>