<?xml version="1.0" standalone="no"?><!DOCTYPE svg PUBLIC "-//W3C//DTD SVG 1.1//EN" "http://www.w3.org/Graphics/SVG/1.1/DTD/svg11.dtd"><svg t="1619317480929" class="icon" viewBox="0 0 1832 1024" version="1.1" xmlns="http://www.w3.org/2000/svg" p-id="2169" width="28.625" height="16" xmlns:xlink="http://www.w3.org/1999/xlink"><defs><style type="text/css"></style></defs><path d="M1340.805 446.992h-41.875c-19.005 0-39.459-14.978-45.096-33.339l-23.997-58.303c-9.019-16.911-5.315-41.714 8.214-55.243l29.634-29.634c13.529-13.529 13.529-35.755 0-49.283l-49.283-49.283c-13.529-13.529-35.755-13.529-49.283 0l-29.634 29.634c-13.529 13.529-38.493 17.233-55.404 8.214l-58.303-23.997c-18.199-5.637-33.178-25.93-33.178-45.257v-41.714c0-19.166-15.784-34.788-34.788-34.788h-69.738c-19.166 0-34.788 15.623-34.788 34.788v41.714c0 19.327-14.978 39.62-33.339 45.257l-58.303 23.997c-16.911 9.019-41.714 5.315-55.243-8.214l-29.796-29.634c-13.529-13.529-35.594-13.529-49.122 0l-49.283 49.283c-13.529 13.529-13.529 35.755 0 49.283l29.634 29.634c13.529 13.529 17.233 38.332 8.214 55.243l-23.997 58.464c-5.798 18.199-26.091 33.178-45.257 33.178h-41.714c-19.166 0-34.949 15.623-34.949 34.788v69.738c0 19.166 15.784 34.788 34.949 34.788h41.714c19.166 0 39.459 14.978 45.096 33.339l24.159 58.303c9.019 16.911 5.315 41.875-8.214 55.243l-29.634 29.634c-13.529 13.529-13.529 35.755 0 49.283l49.283 49.283c13.529 13.529 35.594 13.529 49.122 0l29.796-29.634c13.368-13.529 38.332-17.233 55.081-8.053l58.464 23.997c18.36 5.637 33.339 25.93 33.339 45.096v41.714c0 19.166 15.623 34.788 34.788 34.788h69.738c19.005 0 34.788-15.623 34.788-34.788v-41.714c0-19.166 14.978-39.459 33.178-45.096l58.464-23.997c16.75-9.18 41.714-5.476 55.243 8.053l29.634 29.634c13.529 13.529 35.755 13.529 49.283 0l49.283-49.283c13.529-13.529 13.529-35.755 0-49.283l-29.634-29.634c-13.529-13.368-17.233-38.332-8.214-55.243l23.997-58.303c5.637-18.36 26.091-33.339 45.096-33.339h41.875c19.166 0 34.788-15.623 34.788-34.788v-69.738c0-19.166-15.623-34.788-34.788-34.788zM1097.126 516.569c0 96.151-77.952 174.103-174.103 174.103s-174.103-77.952-174.103-174.103 77.952-174.103 174.103-174.103 174.103 77.952 174.103 174.103z" p-id="2170" fill="#1296db"></path></svg>